HIERARCHY
ROOT Hips
{
	OFFSET 0.000000 0.000000 0.000000 
	CHANNELS 6 Xposition Yposition Zposition Zrotation Xrotation Yrotation
	JOINT Spine
	{
		OFFSET -0.000000 8.280624 0.000000 
		CHANNELS 3 Zrotation Xrotation Yrotation
		JOINT Spine1
		{
			OFFSET -0.000000 24.860672 0.000000 
			CHANNELS 3 Zrotation Xrotation Yrotation
			JOINT Neck
			{
				OFFSET -0.000000 24.758574 2.250779 
				CHANNELS 3 Zrotation Xrotation Yrotation
				JOINT Head
				{
					OFFSET -0.000000 14.137651 -2.019665 
					CHANNELS 3 Zrotation Xrotation Yrotation
					End Site
					{
						OFFSET -0.000000 25.245806 0.000000 
					}
				}
			}
			JOINT LeftShoulder
			{
				OFFSET 4.021533 22.370487 -0.301823 
				CHANNELS 3 Zrotation Xrotation Yrotation
				JOINT LeftArm
				{
					OFFSET 12.928750 0.000000 0.000000 
					CHANNELS 3 Zrotation Xrotation Yrotation
					JOINT LeftForeArm
					{
						OFFSET 29.110218 0.000000 0.000000 
						CHANNELS 3 Zrotation Xrotation Yrotation
						JOINT LeftHand
						{
							OFFSET 26.112843 0.000000 0.000000 
							CHANNELS 3 Zrotation Xrotation Yrotation
							End Site
							{
								OFFSET 15.147485 0.000000 0.000000 
							}
						}
					}
				}
			}
			JOINT RightShoulder
			{
				OFFSET -4.040554 22.370487 -0.301823 
				CHANNELS 3 Zrotation Xrotation Yrotation
				JOINT RightArm
				{
					OFFSET -12.928750 0.000000 0.000000 
					CHANNELS 3 Zrotation Xrotation Yrotation
					JOINT RightForeArm
					{
						OFFSET -29.110218 0.000000 0.000000 
						CHANNELS 3 Zrotation Xrotation Yrotation
						JOINT RightHand
						{
							OFFSET -26.112843 0.000000 0.000000 
							CHANNELS 3 Zrotation Xrotation Yrotation
							End Site
							{
								OFFSET -15.147485 0.000000 0.000000 
							}
						}
					}
				}
			}
		}
	}
	JOINT LeftUpLeg
	{
		OFFSET 10.098323 0.000000 0.000000 
		CHANNELS 3 Zrotation Xrotation Yrotation
		JOINT LeftLeg
		{
			OFFSET -0.000000 -44.180832 0.000000 
			CHANNELS 3 Zrotation Xrotation Yrotation
			JOINT LeftFoot
			{
				OFFSET -0.000000 -40.401024 0.000000 
				CHANNELS 3 Zrotation Xrotation Yrotation
				JOINT LeftToeBase
				{
					OFFSET -0.000000 -6.563910 15.147485 
					CHANNELS 3 Zrotation Xrotation Yrotation
					End Site
					{
						OFFSET -0.000000 0.000000 4.039329 
					}
				}
			}
		}
	}
	JOINT RightUpLeg
	{
		OFFSET -10.098323 0.000000 0.000000 
		CHANNELS 3 Zrotation Xrotation Yrotation
		JOINT RightLeg
		{
			OFFSET -0.000000 -44.180832 0.000000 
			CHANNELS 3 Zrotation Xrotation Yrotation
			JOINT RightFoot
			{
				OFFSET -0.000000 -40.401024 0.000000 
				CHANNELS 3 Zrotation Xrotation Yrotation
				JOINT RightToeBase
				{
					OFFSET -0.000000 -6.563910 15.147485 
					CHANNELS 3 Zrotation Xrotation Yrotation
					End Site
					{
						OFFSET -0.000000 0.000000 4.039329 
					}
				}
			}
		}
	}
}
MOTION
Frames: 7
Frame Time: 0.008333
-35.462006 94.785233 -0.854672 10.065979 -2.531044 93.782417 -4.045396 8.579118 -7.137570 1.387157 5.173570 -7.503684 -4.587257 21.453798 4.210472 0.332182 30.879829 4.114192 -0.016787 7.194715 -20.746130 -28.234262 48.549255 -60.113117 -12.085198 -1.753336 -49.766972 29.405813 -9.828705 -9.473169 0.144933 11.512956 7.260520 72.182831 7.646074 7.701999 27.482420 -13.412633 79.955086 6.575753 -33.106007 37.796677 18.954613 8.170288 18.450562 -1.528167 6.420221 18.720440 -10.123735 12.592590 13.095011 0.000000 0.000000 0.000000 -12.720152 5.602464 1.009249 -0.689799 15.853234 5.202977 20.479288 5.518692 -20.137033 0.000000 0.000000 0.000000 
-35.380207 94.614014 -0.185875 10.040280 -2.358480 93.844261 -3.951933 8.618658 -7.183539 1.135897 5.131031 -7.532241 -4.583984 21.416428 4.294933 0.331527 30.904547 4.204077 0.022736 7.117013 -20.703514 -28.326141 48.299461 -59.815739 -11.941530 -1.118510 -50.507702 29.786942 -9.289196 -9.573927 0.188180 11.630287 7.149752 72.164116 7.627311 7.460205 27.268976 -12.796896 80.890831 6.552609 -32.736633 38.176861 19.139536 8.221300 18.518438 -1.422070 6.230161 18.903431 -10.175431 12.931122 12.774333 0.000000 0.000000 0.000000 -12.614764 5.717616 0.237948 -0.566402 16.028809 4.822185 20.157717 4.370496 -19.244453 0.000000 0.000000 0.000000 
-35.303638 94.445801 0.544378 10.038998 -2.263467 93.849075 -3.834689 8.696292 -7.204345 0.993935 5.088225 -7.540077 -4.630651 21.380270 4.417007 0.267849 30.855387 4.339633 0.001144 7.047269 -20.639212 -28.392469 48.023064 -59.496086 -11.807225 -0.482112 -51.353294 30.393421 -8.773521 -9.634151 0.178955 11.765694 7.022951 72.093918 7.661844 7.355970 27.400417 -12.098376 81.910172 6.015754 -32.743870 38.834454 19.429676 8.313103 18.499651 -1.301176 5.921318 18.670303 -10.412850 13.433702 13.103235 0.000000 0.000000 0.000000 -12.377064 5.777591 -0.591838 -0.438451 15.893460 4.884849 19.640827 3.818171 -18.789221 0.000000 0.000000 0.000000 
-35.241898 94.286636 1.250002 10.012873 -2.206924 93.835571 -3.627038 8.751744 -7.205804 0.750843 5.044724 -7.516408 -4.531408 21.311789 4.502455 0.146225 30.866676 4.453497 0.038502 6.963210 -20.624607 -28.559343 47.704063 -59.144554 -11.724816 0.252147 -52.134033 31.127106 -8.151931 -9.563379 0.241019 11.848555 6.936302 72.112122 7.909534 7.130705 26.984009 -11.862583 82.985527 6.160142 -32.540928 39.262379 19.777063 8.378636 18.223335 -1.316021 5.697762 18.809969 -10.439447 13.786126 13.194328 0.000000 0.000000 0.000000 -12.042544 5.751638 -1.922836 -0.624034 16.049061 5.576617 18.962799 2.939654 -18.205551 0.000000 0.000000 0.000000 
-35.188602 94.134544 1.964806 9.989235 -2.232283 93.781807 -3.377219 8.817277 -7.202766 0.605954 5.017580 -7.489657 -4.583075 21.199718 4.660428 0.114054 30.839376 4.625133 -0.006865 6.894752 -20.523787 -28.649378 47.343258 -58.885571 -11.712531 1.026150 -52.923588 32.058666 -7.526888 -9.439124 0.240594 11.890372 6.845536 72.056953 7.972027 6.932284 26.842117 -11.281619 83.980614 5.954928 -32.337078 39.771885 20.076532 8.450724 18.633389 -1.015483 5.370283 18.446634 -10.424623 14.310801 13.088943 0.000000 0.000000 0.000000 -11.684957 5.663392 -2.808292 -0.582388 16.293880 6.235362 18.161501 1.986362 -17.928837 0.000000 0.000000 0.000000 
-35.162334 93.997940 2.677254 9.930674 -2.321842 93.671104 -3.086224 8.880817 -7.167191 0.471666 4.958184 -7.427220 -4.565944 21.155493 4.812269 -0.001074 30.662174 4.802114 -0.034764 6.843558 -20.468294 -28.763020 46.942242 -58.613853 -11.693457 1.848272 -53.709732 33.203358 -6.842964 -9.235838 0.246512 11.942392 6.840399 71.971283 7.953763 6.706765 26.243847 -10.853820 84.661156 6.644284 -31.473785 40.345173 20.472361 8.481036 18.753174 -0.870977 5.174062 18.381611 -10.166746 14.621413 12.825115 0.000000 0.000000 0.000000 -11.230109 5.472181 -3.670299 -0.653843 16.581648 7.144934 17.402979 1.062667 -17.817808 0.000000 0.000000 0.000000 
-35.142200 93.860077 3.409068 9.836313 -2.471326 93.521507 -2.708947 8.915200 -7.128728 0.303237 4.900887 -7.352821 -4.443974 21.017948 4.949599 -0.252951 30.561600 4.991212 -0.041395 6.789371 -20.389715 -28.900829 46.535206 -58.364052 -11.672340 2.721524 -54.532188 34.622089 -6.103930 -8.946995 0.269732 12.007341 6.826418 71.824036 7.958251 6.519501 26.191723 -10.271450 85.704124 6.542156 -31.327164 40.866753 20.932859 8.480984 18.744497 -0.759405 4.956593 18.367119 -9.946074 14.768923 12.350600 0.000000 0.000000 0.000000 -10.713264 5.199825 -4.365381 -0.687112 16.932360 8.030123 16.569994 0.130256 -17.792282 0.000000 0.000000 0.000000 
